<svg xmlns="http://www.w3.org/2000/svg" xmlns:xlink="http://www.w3.org/1999/xlink" width="500" zoomAndPan="magnify" viewBox="0 0 375 374.999991" height="500" preserveAspectRatio="xMidYMid meet" version="1.0"><defs><clipPath id="2167a79b5d"><path d="M 212 61.410156 L 274 61.410156 L 274 143 L 212 143 Z M 212 61.410156 " clip-rule="nonzero"/></clipPath><clipPath id="a3572286bb"><path d="M 245.691406 74.542969 L 273.414062 142.066406 L 242.207031 141.121094 L 212.597656 61.492188 Z M 245.691406 74.542969 " clip-rule="nonzero"/></clipPath><clipPath id="9700a2a691"><path d="M 158 40.1875 L 237 40.1875 L 237 141 L 158 141 Z M 158 40.1875 " clip-rule="nonzero"/></clipPath><clipPath id="db55939cd3"><path d="M 236.976562 140.804688 L 207.632812 60.015625 L 158.148438 40.574219 L 186.859375 139.570312 Z M 236.976562 140.804688 " clip-rule="nonzero"/></clipPath><clipPath id="f0b4672376"><path d="M 68 5 L 178 5 L 178 140 L 68 140 Z M 68 5 " clip-rule="nonzero"/></clipPath><clipPath id="305d0da0b5"><path d="M 148.945312 36.96875 L 177.492188 139.257812 L 86.144531 136.761719 L 68.179688 5.300781 " clip-rule="nonzero"/></clipPath><clipPath id="7b1f98be31"><path d="M 87.398438 148 L 222 148 L 222 370 L 87.398438 370 Z M 87.398438 148 " clip-rule="nonzero"/></clipPath><clipPath id="2c0b51026c"><path d="M 87.792969 148.382812 L 179.984375 148.382812 L 221.457031 296.820312 L 117.882812 369.160156 Z M 87.792969 148.382812 " clip-rule="nonzero"/></clipPath><clipPath id="d8d8575487"><path d="M 189 148 L 279.511719 148 L 279.511719 291 L 189 291 Z M 189 148 " clip-rule="nonzero"/></clipPath><clipPath id="988e296a23"><path d="M 189.378906 148.359375 L 239.664062 148.433594 L 279.273438 256.460938 L 230.511719 290.402344 Z M 189.378906 148.359375 " clip-rule="nonzero"/></clipPath><clipPath id="a9103e43ac"><path d="M 244.011719 148 L 311.878906 148 L 311.878906 253.929688 L 244.011719 253.929688 Z M 244.011719 148 " clip-rule="nonzero"/></clipPath><clipPath id="e2dfe4b16f"><path d="M 311.253906 234.113281 L 283.652344 253.3125 L 244.84375 148.359375 L 276.050781 148.433594 " clip-rule="nonzero"/></clipPath></defs><g clip-path="url(#2167a79b5d)"><g clip-path="url(#a3572286bb)"><path fill="#dca636" d="M 56.074219 -6.804688 L 323.363281 -6.804688 L 323.363281 381.265625 L 56.074219 381.265625 Z M 56.074219 -6.804688 " fill-opacity="1" fill-rule="nonzero"/></g></g><g clip-path="url(#9700a2a691)"><g clip-path="url(#db55939cd3)"><path fill="#dca636" d="M 56.074219 -6.804688 L 323.363281 -6.804688 L 323.363281 381.265625 L 56.074219 381.265625 Z M 56.074219 -6.804688 " fill-opacity="1" fill-rule="nonzero"/></g></g><g clip-path="url(#f0b4672376)"><g clip-path="url(#305d0da0b5)"><path fill="#dca636" d="M 56.074219 -6.804688 L 323.363281 -6.804688 L 323.363281 381.265625 L 56.074219 381.265625 Z M 56.074219 -6.804688 " fill-opacity="1" fill-rule="nonzero"/></g></g><g clip-path="url(#7b1f98be31)"><g clip-path="url(#2c0b51026c)"><path fill="#dca636" d="M 56.074219 -6.804688 L 323.363281 -6.804688 L 323.363281 381.265625 L 56.074219 381.265625 Z M 56.074219 -6.804688 " fill-opacity="1" fill-rule="nonzero"/></g></g><g clip-path="url(#d8d8575487)"><g clip-path="url(#988e296a23)"><path fill="#dca636" d="M 56.074219 -6.804688 L 323.363281 -6.804688 L 323.363281 381.265625 L 56.074219 381.265625 Z M 56.074219 -6.804688 " fill-opacity="1" fill-rule="nonzero"/></g></g><g clip-path="url(#a9103e43ac)"><g clip-path="url(#e2dfe4b16f)"><path fill="#dca636" d="M 56.074219 -6.804688 L 323.363281 -6.804688 L 323.363281 381.265625 L 56.074219 381.265625 Z M 56.074219 -6.804688 " fill-opacity="1" fill-rule="nonzero"/></g></g></svg>